<svg xmlns="http://www.w3.org/2000/svg" aria-hidden="true" style="position:absolute;width:0;height:0;overflow:hidden">
  <defs>
    <symbol id="icon-facebook" viewBox="0 0 32 32">
      <path d="M19.52 4.64h.96v3.6h-1.2c-.48 0-.96 0-1.2.24s-.24.48-.24 1.04v1.28h2.64v3.04h-2.64v13.2h-4.08V13.76H11.6v-3.04h2.16V9.68c0-1.76.24-3.04.72-3.6.72-1.04 2.16-1.52 4.32-1.52.24.08.48.08.72.08z"/>
    </symbol>
    <symbol id="icon-instagram" viewBox="0 0 32 32">
      <path d="M28.717 10.756a9.264 9.264 0 0 0-.596-3.145 6.547 6.547 0 0 0-3.743-3.737 9.42 9.42 0 0 0-3.108-.596c-1.367-.061-1.801-.078-5.273-.078s-3.916 0-5.274.078a9.418 9.418 0 0 0-3.106.596 6.541 6.541 0 0 0-3.743 3.737 9.288 9.288 0 0 0-.596 3.101c-.061 1.367-.08 1.8-.08 5.265s0 3.909.08 5.265a9.335 9.335 0 0 0 .596 3.104 6.548 6.548 0 0 0 3.744 3.735 9.37 9.37 0 0 0 3.106.639c1.369.061 1.803.079 5.274.079s3.917 0 5.274-.079a9.362 9.362 0 0 0 3.108-.595 6.555 6.555 0 0 0 3.743-3.737 9.346 9.346 0 0 0 .596-3.104c.061-1.365.08-1.798.08-5.265-.003-3.466-.003-3.906-.082-5.264zM15.99 22.531c-3.631 0-6.572-2.936-6.572-6.561s2.941-6.561 6.572-6.561c3.628 0 6.572 2.936 6.572 6.561s-2.944 6.561-6.572 6.561zm6.833-11.835a1.53 1.53 0 1 1 0-3.06 1.53 1.53 0 1 1 0 3.06z"/>
      <path d="M15.992 19.976a4.004 4.004 0 1 0 0-8.009 4.004 4.004 0 0 0 0 8.009z"/>
    </symbol>
    <symbol id="icon-close-btn" viewBox="0 0 32 32">
      <path stroke-linecap="round" stroke-linejoin="round" stroke-width="2.286" d="M22.666 9.333 9.333 22.666m0-13.333 13.333 13.333"/>
    </symbol>
    <symbol id="icon-logo-twit" viewBox="0 0 32 32">
      <path d="M29.333 7.898c-.992.435-2.048.723-3.15.863a5.44 5.44 0 0 0 2.405-3.022 10.916 10.916 0 0 1-3.467 1.323 5.465 5.465 0 0 0-9.456 3.738c0 .433.037.85.127 1.247-4.545-.222-8.567-2.4-11.268-5.718a5.5 5.5 0 0 0-.748 2.763c0 1.893.975 3.572 2.428 4.543a5.412 5.412 0 0 1-2.47-.673v.06a5.493 5.493 0 0 0 4.38 5.372c-.445.122-.93.18-1.433.18-.35 0-.703-.02-1.035-.093.708 2.165 2.718 3.757 5.108 3.808a10.985 10.985 0 0 1-6.778 2.332c-.448 0-.878-.02-1.308-.075a15.39 15.39 0 0 0 8.387 2.453c10.06 0 15.56-8.333 15.56-15.557 0-.242-.008-.475-.02-.707a10.91 10.91 0 0 0 2.74-2.838z"/>
    </symbol>
    <symbol id="icon-scroll" viewBox="0 0 32 32">
<path fill="#fd9222" style="fill: var(--color2, #fd9222)" d="M16.945 17.868c-0.242 0.242-0.576 0.392-0.945 0.392s-0.704-0.15-0.945-0.392l-0-0-6.109-6.121c-0.244-0.264-0.592-0.428-0.979-0.428-0.737 0-1.334 0.597-1.334 1.334 0 0.384 0.162 0.729 0.421 0.973l0.001 0.001 6.119 6.121c0.724 0.723 1.723 1.169 2.826 1.169s2.103-0.447 2.826-1.169l6.121-6.121c0.239-0.241 0.387-0.573 0.387-0.94 0-0.737-0.597-1.334-1.334-1.334-0.37 0-0.705 0.151-0.947 0.394l-0 0-6.106 6.119z"></path>
</symbol>
    <symbol id="icon-open-btn" viewBox="0 0 32 32">
      <path stroke-linecap="round" stroke-linejoin="round" stroke-width="2.286" d="M4 16h24M4 8h24M4 24h24"/>
    </symbol>
    <symbol id="icon-arrow" viewBox="0 0 32 32">
<path fill="none" stroke="#fafafa" style="stroke: var(--color1, #fafafa)" stroke-linejoin="round" stroke-linecap="round" stroke-miterlimit="4" stroke-width="1.3333" d="M9.143 16h13.715M22.857 16l-3.431-3.428M22.857 16l-3.429 3.428M16 30.857c8.205 0 14.857-6.652 14.857-14.857s-6.652-14.857-14.857-14.857c-8.205 0-14.857 6.652-14.857 14.857s6.652 14.857 14.857 14.857z"></path>
</symbol>
<symbol id="icon-chocolate-bar" viewBox="0 0 32 32">
<path fill="#111" style="fill: var(--color3, #111)" d="M13.822 2.413l7.528 7.537 0.080-0.080c0.154-0.151 0.366-0.244 0.599-0.244 0.227 0 0.433 0.088 0.586 0.232l-0-0 0.873 0.873c0.305 0.304 0.316 0.77 0.084 1.093l-0.005 0.008-0.143 0.192 6.16 6.16c0.55 0.55 0.55 1.43 0 1.98l-9.43 9.43c-0.55 0.55-1.43 0.55-1.98 0l-4.447-4.448c-0.156 0.195-0.393 0.318-0.66 0.318-0.232 0-0.443-0.094-0.595-0.246l-2.6-2.6c-0.151-0.154-0.244-0.366-0.244-0.599 0-0.227 0.088-0.433 0.232-0.586l-0 0 0.006-0.008 0.077-0.076-7.527-7.527c-0.55-0.55-0.55-1.43 0-1.98l9.43-9.43c0.55-0.55 1.43-0.55 1.98 0v0.002zM20.404 10.893l-1.756-1.755c-0.108-0.111-0.258-0.18-0.425-0.18s-0.317 0.069-0.425 0.18l-3.58 3.58c-0.11 0.11-0.179 0.262-0.179 0.43s0.068 0.32 0.179 0.43l1.75 1.75 0.61-0.61-1.566-1.566 3.21-3.22 1.57 1.575 0.612-0.614zM15.329 15.965l-1.755-1.754c-0.108-0.111-0.258-0.18-0.425-0.18s-0.317 0.069-0.425 0.18l-3.59 3.591c-0.24 0.23-0.24 0.61 0 0.85l1.752 1.752 0.617-0.616-1.57-1.564 3.22-3.21 1.563 1.563 0.613-0.612zM8.822 8.195l3.58 3.58c0.24 0.24 0.62 0.24 0.85-0.010l3.58-3.58c0.111-0.106 0.18-0.255 0.18-0.42 0-0 0-0 0-0v0h0.010c0-0.15-0.060-0.31-0.18-0.43l-3.58-3.58c-0.11-0.111-0.262-0.179-0.43-0.179s-0.32 0.069-0.43 0.179l-0 0-3.58 3.59c-0.24 0.23-0.24 0.61 0 0.85zM3.752 13.265l3.58 3.58c0.24 0.24 0.62 0.24 0.85 0l3.58-3.58c0.111-0.106 0.18-0.255 0.18-0.42 0-0.004-0-0.007-0-0.010v0.001h0.010c0-0.16-0.060-0.31-0.18-0.43l-3.58-3.58c-0.108-0.111-0.258-0.18-0.425-0.18s-0.317 0.069-0.425 0.18l-3.59 3.59c-0.24 0.23-0.24 0.61 0 0.85zM10.685 22.018l2.362 2.364 9.636-13.040-0.654-0.655-11.344 11.331z"></path>
<path fill="#fd9222" style="fill: var(--color2, #fd9222)" d="M13.822 2.413l7.528 7.537 0.080-0.080c0.154-0.151 0.366-0.244 0.599-0.244 0.227 0 0.433 0.088 0.586 0.232l-0-0 0.873 0.873c0.305 0.304 0.316 0.77 0.084 1.093l-0.005 0.008-0.143 0.192 6.16 6.16c0.55 0.55 0.55 1.43 0 1.98l-9.43 9.43c-0.55 0.55-1.43 0.55-1.98 0l-4.447-4.448c-0.156 0.195-0.393 0.318-0.66 0.318-0.232 0-0.443-0.094-0.595-0.246l-2.6-2.6c-0.151-0.154-0.244-0.366-0.244-0.599 0-0.227 0.088-0.433 0.232-0.586l-0 0 0.006-0.008 0.077-0.076-7.527-7.527c-0.55-0.55-0.55-1.43 0-1.98l9.43-9.43c0.55-0.55 1.43-0.55 1.98 0v0.002zM20.404 10.893l-1.756-1.755c-0.108-0.111-0.258-0.18-0.425-0.18s-0.317 0.069-0.425 0.18l-3.58 3.58c-0.11 0.11-0.179 0.262-0.179 0.43s0.068 0.32 0.179 0.43l1.75 1.75 0.61-0.61-1.566-1.566 3.21-3.22 1.57 1.575 0.612-0.614zM15.329 15.965l-1.755-1.754c-0.108-0.111-0.258-0.18-0.425-0.18s-0.317 0.069-0.425 0.18l-3.59 3.591c-0.24 0.23-0.24 0.61 0 0.85l1.752 1.752 0.617-0.616-1.57-1.564 3.22-3.21 1.563 1.563 0.613-0.612zM8.822 8.195l3.58 3.58c0.24 0.24 0.62 0.24 0.85-0.010l3.58-3.58c0.111-0.106 0.18-0.255 0.18-0.42 0-0 0-0 0-0v0h0.010c0-0.15-0.060-0.31-0.18-0.43l-3.58-3.58c-0.11-0.111-0.262-0.179-0.43-0.179s-0.32 0.069-0.43 0.179l-0 0-3.58 3.59c-0.24 0.23-0.24 0.61 0 0.85zM3.752 13.265l3.58 3.58c0.24 0.24 0.62 0.24 0.85 0l3.58-3.58c0.111-0.106 0.18-0.255 0.18-0.42 0-0.004-0-0.007-0-0.010v0.001h0.010c0-0.16-0.060-0.31-0.18-0.43l-3.58-3.58c-0.108-0.111-0.258-0.18-0.425-0.18s-0.317 0.069-0.425 0.18l-3.59 3.59c-0.24 0.23-0.24 0.61 0 0.85zM10.685 22.018l2.362 2.364 9.636-13.040-0.654-0.655-11.344 11.331z"></path>
</symbol>
<symbol id="icon-Coin" viewBox="0 0 32 32">
<path fill="#fd9222" style="fill: var(--color2, #fd9222)" d="M16 2.667c-7.333 0-13.333 6-13.333 13.333s6 13.333 13.333 13.333 13.333-6 13.333-13.333-6-13.333-13.333-13.333zM16 26.667c-5.867 0-10.667-4.8-10.667-10.667s4.8-10.667 10.667-10.667 10.667 4.8 10.667 10.667-4.8 10.667-10.667 10.667z"></path>
<path fill="#fd9222" style="fill: var(--color2, #fd9222)" d="M17.733 14.667h-3.466c-0.667 0-1.2-0.534-1.2-1.2 0-0.667 0.533-1.2 1.2-1.2h4.933c0.8 0 1.333-0.534 1.333-1.334s-0.533-1.333-1.333-1.333h-1.867v-1.2c0-0.8-0.533-1.333-1.333-1.333s-1.333 0.533-1.333 1.333v1.2h-0.4c-2.135 0.002-3.865 1.732-3.867 3.867v0c0.002 2.135 1.732 3.864 3.867 3.866h3.333c0.667 0 1.2 0.534 1.2 1.2 0 0.667-0.533 1.2-1.2 1.2h-4.933c-0.8 0-1.334 0.534-1.334 1.334s0.534 1.333 1.334 1.333h2v1.2c0 0.8 0.533 1.333 1.333 1.333s1.333-0.533 1.333-1.333v-1.2h0.4c2.135-0.002 3.865-1.732 3.867-3.867v-0c-0.002-2.135-1.732-3.864-3.867-3.866h-0z"></path>
</symbol>
<symbol id="icon-spoon" viewBox="0 0 32 32">
<path fill="#fd9222" style="fill: var(--color2, #fd9222)" d="M15.451 14.106c-0.732-0.884-1.176-2.029-1.176-3.278 0-0.001 0-0.003 0-0.004v0c0-4.324 5.181-8.642 10.362-8.642 2.861 0.001 5.18 2.321 5.181 5.182v0c0 5.182-4.317 10.364-8.646 10.364-0.001 0-0.002 0-0.003 0-1.249 0-2.395-0.444-3.287-1.184l0.009 0.007-12.758 12.761c-0.308 0.287-0.723 0.463-1.178 0.463-0.955 0-1.73-0.775-1.73-1.73 0-0.456 0.176-0.87 0.464-1.179l-0.001 0.001 12.764-12.761z"></path>
</symbol>
  </defs>
</svg>
